<?xml version="1.0" encoding="UTF-8"?>
    <svg xmlns="http://www.w3.org/2000/svg" viewBox="0 0 137 82">            
        <g transform="translate(-0.25, -0.25) scale(0.006, 0.006)">
            <rect fill="#2e3b43" y="19" width="137" height="45"/>
            <g opacity=".5">
                <polygon fill="#ff7518" points="65.19 63 111.58 22 94.26 22 47.87 63 65.19 63"/>
                <polygon fill="#ff7518" points="36.48 63 82.87 22 65.55 22 19.16 63 36.48 63"/>
                <polygon fill="#ff7518" points="56.14 22 38.82 22 0 56.31 0 46.25 27.43 22 10.11 22 0 30.94 0 42 0 63 9.75 63 56.14 22"/>
                <polygon fill="#ff7518" points="120.99 22 74.6 63 91.92 63 136.5 23.6 136.5 33.66 103.31 63 120.63 63 137 48 137 42 137 42 137 22 120.99 22"/>
            </g>
            <g>
                <path fill="#ff7518" d="M36,37v-10H104v10h33V13.33c0-7.36-5.97-13.33-13.33-13.33H13.33C5.97,0,0,5.97,0,13.33v23.67H36Z"/>
                <path fill="#ff7518" d="M104,45v13H36v-13H0v23.67c0,7.36,5.97,13.33,13.33,13.33H123.67c7.36,0,13.33-5.97,13.33-13.33v-23.67h-33Z"/>
            </g>
            <rect fill="#ff7518" x="28" y="52" width="81" height="13"/>
            <rect fill="#ff7518" x="28" y="17" width="81" height="13"/>
        </g>
    </svg>