<svg version="1.1" id="Layer_1" xmlns="http://www.w3.org/2000/svg" xmlns:xlink="http://www.w3.org/1999/xlink" x="0px" y="0px"
	 viewBox="0 0 511.8 479.6" style="enable-background:new 0 0 511.8 479.6;" xml:space="preserve">
<g transform="scale(0.003, 0.003)">
	<path opacity="0.33" fill="#F04E5A" d="M443.8,405.8H69.4c-22.2,0-40.2-18-40.2-40.2V73.2c0-21.2,17.2-38.4,38.4-38.4h378.1
		c21.2,0,38.4,17.2,38.4,38.4v292.4C484,387.8,466,405.8,443.8,405.8z"/>
	<path fill="#F04E5A" d="M457.9,7.8H55.2C28.9,7.8,7.6,29.2,7.6,55.5v366.7c0,26.3,21.3,47.7,47.7,47.7h402.7
		c26.3,0,47.7-21.3,47.7-47.7V55.5C505.6,29.2,484.2,7.8,457.9,7.8z M484,365.6c0,22.2-18,40.2-40.2,40.2H69.4
		c-22.2,0-40.2-18-40.2-40.2V73.2c0-21.2,17.2-38.4,38.4-38.4h378.1c21.2,0,38.4,17.2,38.4,38.4V365.6z"/>
	<g>
		<g>
			<path fill="#F04E5A" d="M384.6,139.3c-4-12-5.5-19.2-16.5-37.7c-3.2-5.3-6.7-10.4-11.2-14.7c-5-4.8-10.9-8.4-17-11.6
				c-10.4-5.5-21.4-10-32.7-13.4C307.4,65.5,305,90,305,90l-6.8,13.3l-9.6,16.5l1.4-27.8l4.6-6.2l1-26l-16.4-5.5
				c-41.4-3.8-84.1,12.3-112.7,42.4l0.3,0.1c-7.1,7.2-13.2,15.5-17.9,24.5c-1.1,2.2-2.2,4.4-2.9,6.7c-1.5,4.7-1.8,9.7-2,14.7
				c-0.2,8-0.2,16-0.1,24.1c0,4,0.1,8.1,0.7,12.1c1.1,6.5,3.9,12.6,6.6,18.7c0,0,2.4,11.3,2.6,18.3c0.1,8.2,0.3,16.4,0.4,24.6
				c0,2.4,0.1,4.9-0.9,7.1c-0.9,2.2-3.1,4-5.5,3.8c-1.1-0.1-2.2-0.7-3.3-0.5c-2.7,0.3-3.2,4.1-2.9,6.8c1.1,8.2,3.3,16.3,6.6,23.9
				c1.6,3.8,3.6,7.6,7,9.9c2.4,1.7,5.2,2.4,8,3.2c8.5,2.2,17.1,4,25.8,5.4c2,0.3,4.2,0.6,6.1-0.1c4-1.4,10.4-4,13.4-4
				c2.2,0,5.3,2.3,5,6c-0.9,10.8,5,57,5,57l12-10l6,10l7.9-6.2l8.1,10.2l7-14l7,13l6-11l7,8l2.3-7.6l6,9.9l7.1-10.8l7.6,9.5l1.6-3.5
				c0,0,9.1-18.8,9.4-29.5c0.3-10.7-1.2-22.7,1.6-33c10.7,3.5,21.7,7,32.9,6.5c11.2-0.5,22.9-5.8,27.9-15.9l-0.4-0.1
				c2.6-4.8,5.3-9.8,6.2-15.2c1-5.5-1.3-15.8-5.3-19.6c-3.3-3.2-5.1-74.5,8-88V139.3z M236.1,236.2c-1.2,2.8-2.4,5.7-4.3,8.2
				c-3.4,4.6-8.4,7.6-13.4,10.5c-3.8,2.2-7.5,4.3-11.6,5.8c-8.2,3.1-17.4,3.5-25.9,1.1c-1.3-0.3-2.5-0.8-3.6-1.5
				c-1.3-0.8-2.4-2-3.3-3.3c-4.2-6.1-4.7-14-4.1-21.4c0.7-9.3,2.9-18.9,9-25.9l-0.6,0.4c2.1-1.3,4.3-2.6,6.4-3.8
				c1.9-1.1,3.8-2.3,5.9-3.1c2.3-0.9,4.8-1.4,7.2-1.8c4.9-0.8,9.8-1.4,14.7-1.7c5.1-0.4,10.3-0.4,15,1.3c7.2,2.7,12.5,10,12.9,17.7
				C240.9,224.9,238.5,230.6,236.1,236.2z M281.6,300.8c-1,2.2-2,3.6-4,5c-2,1.4-3.9,3.2-6,2c-3.7-2.1-4-7-7-10
				c-3,3-3.9,5.3-5.4,7.6c-1,1.4-2.4,3-4.1,2.9c-1.8-0.1-3.1-1.7-4.1-3.2c-3.4-5.2-5-10-5.4-16.3c-0.3-5.4,1.9-9.1,4-14
				c1.1-2.6,2.7-6.5,4-9c1.2-2.3,1.8-4.7,3-7c1.6-3.1,3.8-5.7,5-9l3-1c4.6,0.6,3.5,2.7,5.7,6.7c2.2,4,3.2,8.6,4.5,13.1
				c1.5,5.1,1.4,9.4,3.7,14.2c1.3,2.6,2.5,6.1,3,9C282.1,295.1,282.9,297.8,281.6,300.8z M357.7,241.3c-1.2,6.5-5.1,12.6-10.8,15.9
				c-6.8,3.9-15.3,3.5-23.1,2.7c-5.1-0.6-10.2-1.3-15-3c-3.4-1.2-6.6-2.9-9.1-5.5c-1.5-1.6-2.6-3.4-3.7-5.3
				c-4-6.8-7.6-14.6-6.5-22.4c0.8-6,4.2-11.3,7.5-16.3c1.4-2.1,2.8-4.2,5-5.5l1,0c3-1.5,6.3-2.3,9.7-2.2c2,0.1,3.9,0.4,5.9,0.7
				c4,0.7,8,1.4,12,2.1c2,0.3,3.9,0.7,5.8,1.4c2,0.8,3.7,2,5.4,3.3c5.3,4,9.9,9,12.9,14.9C357.6,227.9,358.9,234.8,357.7,241.3z"/>
		</g>
	</g>
	<line fill="#2AB675" stroke="#F04E5A" stroke-width="3" stroke-miterlimit="10" x1="450.1" y1="25.8" x2="450.1" y2="410.8"/>
	<line fill="#2AB675" stroke="#F04E5A" stroke-width="3" stroke-miterlimit="10" x1="472.1" y1="25.8" x2="472.1" y2="410.8"/>
	<line fill="#2AB675" stroke="#F04E5A" stroke-width="3" stroke-miterlimit="10" x1="406.1" y1="25.8" x2="406.1" y2="410.8"/>
	<line fill="#2AB675" stroke="#F04E5A" stroke-width="3" stroke-miterlimit="10" x1="428.1" y1="25.8" x2="428.1" y2="410.8"/>
	<line fill="#2AB675" stroke="#F04E5A" stroke-width="3" stroke-miterlimit="10" x1="362.1" y1="25.8" x2="362.1" y2="410.8"/>
	<line fill="#2AB675" stroke="#F04E5A" stroke-width="3" stroke-miterlimit="10" x1="384.1" y1="25.8" x2="384.1" y2="410.8"/>
	<line fill="#2AB675" stroke="#F04E5A" stroke-width="3" stroke-miterlimit="10" x1="318.1" y1="25.8" x2="318.1" y2="410.8"/>
	<line fill="#2AB675" stroke="#F04E5A" stroke-width="3" stroke-miterlimit="10" x1="340.1" y1="25.8" x2="340.1" y2="410.8"/>
	<line fill="#2AB675" stroke="#F04E5A" stroke-width="3" stroke-miterlimit="10" x1="274.1" y1="25.8" x2="274.1" y2="410.8"/>
	<line fill="#2AB675" stroke="#F04E5A" stroke-width="3" stroke-miterlimit="10" x1="296.1" y1="25.8" x2="296.1" y2="410.8"/>
	<line fill="#2AB675" stroke="#F04E5A" stroke-width="3" stroke-miterlimit="10" x1="230.1" y1="25.8" x2="230.1" y2="410.8"/>
	<line fill="#2AB675" stroke="#F04E5A" stroke-width="3" stroke-miterlimit="10" x1="252.1" y1="25.8" x2="252.1" y2="410.8"/>
	<line fill="#2AB675" stroke="#F04E5A" stroke-width="3" stroke-miterlimit="10" x1="186.1" y1="25.8" x2="186.1" y2="410.8"/>
	<line fill="#2AB675" stroke="#F04E5A" stroke-width="3" stroke-miterlimit="10" x1="208.1" y1="25.8" x2="208.1" y2="410.8"/>
	<line fill="#2AB675" stroke="#F04E5A" stroke-width="3" stroke-miterlimit="10" x1="142.1" y1="25.8" x2="142.1" y2="410.8"/>
	<line fill="#2AB675" stroke="#F04E5A" stroke-width="3" stroke-miterlimit="10" x1="164.1" y1="25.8" x2="164.1" y2="410.8"/>
	<line fill="#2AB675" stroke="#F04E5A" stroke-width="3" stroke-miterlimit="10" x1="98.1" y1="25.8" x2="98.1" y2="410.8"/>
	<line fill="#2AB675" stroke="#F04E5A" stroke-width="3" stroke-miterlimit="10" x1="120.1" y1="25.8" x2="120.1" y2="410.8"/>
	<line fill="#2AB675" stroke="#F04E5A" stroke-width="3" stroke-miterlimit="10" x1="54.1" y1="25.8" x2="54.1" y2="410.8"/>
	<line fill="#2AB675" stroke="#F04E5A" stroke-width="3" stroke-miterlimit="10" x1="76.1" y1="25.8" x2="76.1" y2="410.8"/>
	<line fill="#2AB675" stroke="#F04E5A" stroke-width="3" stroke-miterlimit="10" x1="32.1" y1="25.8" x2="32.1" y2="410.8"/>
	<line fill="#2AB675" stroke="#F04E5A" stroke-width="3" stroke-miterlimit="10" x1="22.6" y1="59.3" x2="490.6" y2="59.3"/>
	<line fill="#2AB675" stroke="#F04E5A" stroke-width="3" stroke-miterlimit="10" x1="22.6" y1="37.3" x2="492.6" y2="37.3"/>
	<line fill="#2AB675" stroke="#F04E5A" stroke-width="3" stroke-miterlimit="10" x1="22.6" y1="103.3" x2="489.6" y2="103.3"/>
	<line fill="#2AB675" stroke="#F04E5A" stroke-width="3" stroke-miterlimit="10" x1="22.6" y1="81.3" x2="489.6" y2="81.3"/>
	<line fill="#2AB675" stroke="#F04E5A" stroke-width="3" stroke-miterlimit="10" x1="22.6" y1="147.3" x2="489.6" y2="147.3"/>
	<line fill="#2AB675" stroke="#F04E5A" stroke-width="3" stroke-miterlimit="10" x1="22.6" y1="125.3" x2="490.6" y2="125.3"/>
	<line fill="#2AB675" stroke="#F04E5A" stroke-width="3" stroke-miterlimit="10" x1="22.6" y1="191.3" x2="493.6" y2="191.3"/>
	<line fill="#2AB675" stroke="#F04E5A" stroke-width="3" stroke-miterlimit="10" x1="22.6" y1="169.3" x2="488.6" y2="169.3"/>
	<line fill="#2AB675" stroke="#F04E5A" stroke-width="3" stroke-miterlimit="10" x1="22.6" y1="235.3" x2="489.6" y2="235.3"/>
	<line fill="#2AB675" stroke="#F04E5A" stroke-width="3" stroke-miterlimit="10" x1="22.6" y1="213.3" x2="490.6" y2="213.3"/>
	<line fill="#2AB675" stroke="#F04E5A" stroke-width="3" stroke-miterlimit="10" x1="22.6" y1="279.3" x2="489.6" y2="279.3"/>
	<line fill="#2AB675" stroke="#F04E5A" stroke-width="3" stroke-miterlimit="10" x1="22.6" y1="257.3" x2="489.6" y2="257.3"/>
	<line fill="#2AB675" stroke="#F04E5A" stroke-width="3" stroke-miterlimit="10" x1="22.6" y1="323.3" x2="490.6" y2="323.3"/>
	<line fill="#2AB675" stroke="#F04E5A" stroke-width="3" stroke-miterlimit="10" x1="22.6" y1="301.3" x2="493.6" y2="301.3"/>
	<line fill="#2AB675" stroke="#F04E5A" stroke-width="3" stroke-miterlimit="10" x1="22.6" y1="367.3" x2="493.6" y2="367.3"/>
	<line fill="#2AB675" stroke="#F04E5A" stroke-width="3" stroke-miterlimit="10" x1="22.6" y1="345.3" x2="490.6" y2="345.3"/>
	<line fill="#2AB675" stroke="#F04E5A" stroke-width="3" stroke-miterlimit="10" x1="22.6" y1="411.3" x2="491.6" y2="411.3"/>
	<line fill="#2AB675" stroke="#F04E5A" stroke-width="3" stroke-miterlimit="10" x1="22.6" y1="389.3" x2="491.6" y2="389.3"/>
</g>
</svg>
