<svg xmlns="http://www.w3.org/2000/svg" viewBox="-1 -1 2 2">
	<g transform="translate(0 0) rotate(45 0 0)">
		<rect x="-0.65" y="-0.65" width="1.3" height="1.3" fill="white"/>
	</g>
	<g transform="translate(-0.7 -0.3) scale(0.004 0.004)">
		<g>
			<polygon fill="#1f2023" points="337 22 179 36 160 20 278.67 13 337 22" />
			<path fill="#3e4041" d="M155 167l13.47 3.73c.65.18 1.31.27 1.98.27h11.31c.97 0 1.93-.14 2.86-.42l82.38-24.58 3.24-4.16c2.26-2.9 2.46-6.91.51-10.03l-1.75-2.81-31.74-13.34-38.78 6.84 43.52 14.5-59.3 16.53c-1.12.31-2.29.43-3.46.35l-12.24-.87-12 14Z" />
			<polygon fill="#111214" points="338 97.89 173 127 175.22 36 338 22 338 97.89" />
			<polygon fill="#181a1d" points="137 13 155 13 186 35 186 51.67 181 61 181 104 186 110.56 186 127 171.5 139 171.5 153.22 156 170.78 118 155 111.56 13 137 13" />
			<polygon fill="#131416" points="2 6 19 0 76 0 123 15 145 32 152 52 154 99 148 140 133 159 99 178 61 186 57 175 36 179 25 179 27 167 26 155 7 155 14 140 7 140 4 135 13 120 9 86.5 2 80 8 72 12 48 0 19 5 14 2 6" />
			<path fill="white" d="M81.33 159.22l-36.24-11.41c-5.91-1.86-10.64-8.84-10.52-15.52l1.99-106.15c.13-6.68 5.06-10.62 10.97-8.75l36.24 11.41c5.91 1.86 10.64 8.84 10.52 15.52l-1.99 106.15c-.13 6.68-5.06 10.62-10.97 8.75Z" />
			<polygon fill="#131416" points="83.01 39.26 100.11 34 126 43 129 54 138 63 137 79 130 122 132 128 136 142 128 149 128 154 117 161 116 168 113 170 110 171 107.15 169.83 88.04 169.83 95.08 156.69 88.04 156.69 85.02 152.31 94.08 139.16 90.05 109.8 83.01 104.11 89.05 97.1 93.07 76.06 81 50.65 86.03 46.27 83.01 39.26" />
			<polygon fill="#3e4041" points="258 117 263 109.33 262 101.33 253 86.33 253 52.56 265 38.33 265 25.89 259 19 247.67 19 243 25.33 252 31.33 252 39.33 245 46.33 244 89.33 250 100.33 250 108.33 236 116 244.33 120.33 248 121 258 117" />
			<polygon fill="#3e4041" points="343.13 100.19 346.42 91.16 345.6 84.59 338.21 72.27 338.21 44.55 348.06 32.87 348.06 22.66 343.13 17 333.83 17 330 22.2 337.39 27.12 337.39 33.69 331.64 39.44 330.82 74.74 335.75 83.77 335.75 90.33 330.82 94.44 331.09 100.19 339.03 102.19 343.13 100.19" />
			<polygon fill="#3e4041" points="249 29 214 17 215 10 225 10 259 19 249 29" />
			<polygon fill="#3e4041" points="331 23 278 13 277 9 283 7 343 17 331 23" />
		</g>
	</g>
</svg>