<svg id="Layer_2" xmlns="http://www.w3.org/2000/svg" viewBox="-1 -1 2 2">
	<g transform="translate(0 0) rotate(45 0 0)">
		<rect x="-0.65" y="-0.65" width="1.3" height="1.3" fill="white"/>
	</g>
	<g transform="translate(-0.63 -0.425) scale(0.05 0.05)">
		<circle fill="#3a3a3a" cx="12.5" cy="8.5" r="6.5" />
		<g>
			<path fill="#2d2d2d" d="M24.54 2.42c-.27-.29-.66-.46-1.08-.46H13.55c-.16 0-.31.03-.45.08 3.31.3 5.9 3.08 5.9 6.47s-2.45 6.01-5.63 6.44c.06 0 .12.02.18.02h9.91c.43 0 .81-.18 1.08-.46.29-.27.46-.66.46-1.08V3.5c0-.43-.18-.81-.46-1.08Zm-2.54 9.54h-1V4.95h1v7Z" />
			<path fill="#2d2d2d" d="M6 8.5c0-3.39 2.59-6.17 5.9-6.47-.14-.05-.29-.08-.45-.08H1.55c-.43 0-.81.18-1.08.46-.29.27-.46.66-.46 1.08V13.41c0 .43.18.81.46 1.08.27.29.66.46 1.08.46H11.45c.06 0 .12-.01.18-.02-3.18-.42-5.63-3.14-5.63-6.44Zm-2 3.45h-1V4.95h1v7Z" />
		</g>
		<rect fill="#212121" x="4" width="17" height="3" rx="1.14" ry="1.14" />
		<rect fill="#212121" x="4" y="14" width="17" height="3" rx="1.14" ry="1.14" />
	</g>
</svg>