<svg version="1.1" id="Layer_1" xmlns="http://www.w3.org/2000/svg" xmlns:xlink="http://www.w3.org/1999/xlink" x="0px" y="0px"
	 viewBox="0 0 434.2 698.7" style="enable-background:new 0 0 434.2 698.7;" xml:space="preserve">
<path d="M393,71.4h-98.6c-1.6,0-2.9-1.3-2.9-2.9V27.5C283,19.1,278.3,14.4,269.9,6h-112c-8.4,8.4-13.1,13.1-21.5,21.5
	v40.9c0,1.6-1.3,2.9-2.9,2.9H43.9c-13.1,13.1-20.4,20.4-33.4,33.4V654c13.1,13.1,20.4,20.4,33.4,33.4H393
	c13.1-13.1,20.4-20.4,33.4-33.4V104.8C413.4,91.8,406,84.4,393,71.4z M290.1,491.5L194,582.8c-1.4,1.3-3.7,1-4.6-0.7l-50.6-91.3
	c-1.1-2,0.3-4.4,2.6-4.4h39.2c1.4,0,2.5-0.9,2.9-2.3l22.4-97.1c0.4-1.8-1-3.6-2.9-3.6h-31.6h-22h-31.3c-1.9,0-3.3-1.8-2.9-3.6
	l42.6-184.1c0.3-1.3,1.5-2.3,2.9-2.3H249c2.1,0,3.5,2.2,2.7,4.1l-50,115.8c-0.8,1.9,0.6,4.1,2.7,4.1h17.6h36.5h54
	c2.1,0,3.5,2.2,2.7,4.1l-69.2,160.8c-0.8,1.9,0.6,4.1,2.7,4.1h39.4C290.7,486.4,292,489.6,290.1,491.5z"
	transform="scale(0.0025, 0.0025)"
	fill="#FDDC0D"
	/>
</svg>
