<svg xmlns="http://www.w3.org/2000/svg" viewBox="-1 -1 2 2"><g transform="translate(-.1-.7) scale(.003)"><g><rect fill="#e6bd17" x="3" y="72.48" width="61.44" height="373.47"/><path fill="#262626" d="M9 75.95V17.27c0-2.39 1.25-4.6 3.29-5.83L29.74.92c2.01-1.21 4.52-1.22 6.54-.03l18.62 11.03c1.58.93 2.55 2.63 2.55 4.47v22.8c0 1.48-1.84 2.16-2.8 1.03l-17.36-20.35c-2.26-2.65-6.23-3.02-8.94-.84h0c-4.59 3.7-6.66 9.71-5.27 15.44s3.31 12.39 4.92 13.47c1.75 1.17 5.88 1.31 9.02 1.23 2.78-.07 5.52.63 7.95 1.98l13.03 6.95v17.84H9Z"/><polygon fill="#262626" points="0 382.95 19 407.95 48 407.95 68 382.95 68 447.95 .44 447.95 0 382.95"/><polygon fill="#262626" points="68 136.95 49 111.95 20 111.95 0 136.95 0 71.95 67.56 71.95 68 136.95"/></g></g></svg>