<?xml version="1.0" encoding="UTF-8"?>
<svg xmlns="http://www.w3.org/2000/svg" viewBox="-1 -1 2 2">
    <g transform="translate(0 0) rotate(45 0 0)">
		<rect x="-0.65" y="-0.65" width="1.3" height="1.3" fill="white"/>
	</g>
    <g transform="translate(-0.4, -0.85) scale(0.0055, 0.0055)">
        <polygon fill="#3f3f3f" points="22.49 93.94 98.57 93.94 98.57 99.89 65.49 99.89 74.09 107.17 74.09 144.8 66.82 151.49 74.09 158.77 74.09 195.08 68.14 199.78 74.09 203.75 66.15 203.75 23.15 203.75 27.12 199.78 19.85 194.49 19.85 157.45 27.12 150.83 19.85 143.92 19.85 106.73 27.78 99.89 22.49 99.89 22.49 93.94"/>
        <polygon fill="#3f3f3f" points="12.57 90.63 3.16 90.63 0 88.65 0 77.99 18.52 46.97 54.13 46.97 67.48 56.89 12.57 90.63"/>
        <polygon fill="#141619" points="9.92 91.29 27.78 56.23 64.02 56.23 92.62 66.82 86.66 95.92 23.82 95.92 17.86 95.26 9.92 91.29"/>
        <polygon fill="#3f3f3f" points="19.85 212.35 19.85 203.75 82.63 203.4 82.63 212.35 19.85 212.35"/>
        <path fill="#141619" d="M166.71,89.31l-43.66-17.86-34.4-19.85-9.92-9.92L13.89,0,7.28,9.92l63.51,50.94,13.89,4.63,4.96,12.35-8.27,6.17-.66,4.63,3.31,5.95,11.25,1.98-9.92,103.2-5.95,7.94H41.02l-19.85,7.94-5.95,5.29v9.26l-1.98,6.62,1.98,3.97h13.89l5.95,11.91H118.42l7.28-13.23h5.95l15.88-12.57,5.95-46.31,9.92-9.92,8.6-70.12-5.29-11.25Zm-30.43,120.4l-9.26,8.6-37.38-6.17,2.98-5.73,.66-7.28-2.32-4.41,14.88-6.17,9.26-87.98-1.98-3.97,5.95-4.63,26.46,2.65,4.63,7.94-13.89,107.17Z"/>
        <polygon fill="#141619" points="80.27 90.63 80.27 210.81 89.64 210.81 99.89 91.95 80.27 90.63"/>
    </g>
</svg>