<svg xmlns="http://www.w3.org/2000/svg" viewBox="-1 -1 2 2">
	<g transform="translate(0 0) rotate(45 0 0)">
		<rect x="-0.65" y="-0.65" width="1.3" height="1.3" fill="white"/>
	</g>
	<g transform="translate(-0.524 -0.74) scale(0.0085 0.0085)">
		<g>
			<polygon fill="#383a3b" points="61.74 144.24 24.54 144.2 24.54 148.77 31.23 162.71 35.31 162.71 36.29 158.55 39.22 166.87 58.31 166.87 58.31 158.55 65.16 158.55 65.16 166.87 84.25 166.87 87.19 158.55 88.17 162.71 92.24 162.71 98.93 148.77 98.93 144.2 61.74 144.24" />
			<path fill="#141619" d="M82.59 2.62c-.96-.37-9.1-2.15-13.5-2.43-.92-.06-1.84-.2-2.76-.19l-4.59.07L57.15 0c-.93-.01-1.84.13-2.76.19-4.4.28-12.54 2.06-13.5 2.43-3.9 1.49-8.19 4.78-9.01 10.09V47.36c0 .89.46 2.18 1.02 2.86v.02c.6.72 1.97 1.53 2.89 1.62h9.03v3.92h33.82v-3.92h9.03c.93-.08 2.29-.9 2.88-1.62v-.02c.58-.69 1.04-1.98 1.04-2.86V12.71c-.82-5.31-5.1-8.59-9.01-10.09Z" />
			<path fill="#383a3b" d="M110.73 77.82c-.93-5.72-5-10.43-10.52-12.2l-3.24-1.04-.49-10.77H26.99l-.49 10.77-3.24 1.04c-5.52 1.77-9.58 6.48-10.52 12.2l-2.39 14.66 4.89.98v16.64H108.23v-16.64l4.89-.98-2.39-14.66Z" />
			<polygon fill="#141619" points="11.08 138 22.83 146.32 63.94 149.74 102.11 145.83 112.39 139.14 112.39 107.33 109.46 103.25 13.86 103.25 11.08 107 11.08 138" />
			<path fill="#383a3b" d="M98.71 68.12l7.68-11.12c.5-.72 1.43-1 2.24-.68l2.94 1.17c2.85 1.13 5.43 2.83 7.6 4.99l2.06 2.06c.6.6.73 1.54.3 2.28l-7.75 13.35c-.19.33-.59.48-.95.36l-2.01-.67c-.18-.06-.37.02-.47.18l-4.74 8.53-6.36-7.83 3.92-6.36-4.17-3.79c-.7-.63-.82-1.69-.28-2.46Z" />
			<path fill="#383a3b" d="M23.06 68.12l-7.68-11.12c-.5-.72-1.43-1-2.24-.68l-2.94 1.17c-2.85 1.13-5.43 2.83-7.6 4.99l-2.06 2.06c-.6.6-.73 1.54-.3 2.28l7.75 13.35c.19.33.59.48.95.36l2.01-.67c.18-.06.37.02.47.18l4.74 8.53 6.36-7.83-3.92-6.36 4.17-3.79c.7-.63.82-1.69.28-2.46Z" />
		</g>
	</g>
</svg>