<?xml version="1.0" encoding="UTF-8"?>
<svg xmlns="http://www.w3.org/2000/svg" viewBox="0 0 156 256">
    <g transform="translate(-0.25, -0.6) scale(0.006, 0.006)">
        <rect fill="#2e3b43" x="2" width="151" height="256" rx="53.56" ry="53.56"/>
        <g>
            <path fill="#ff7518" d="M45,144v-29h28V0H20.17C9.03,0,0,9.03,0,20.17V235.83c0,11.14,9.03,20.17,20.17,20.17h52.83v-112h-28Z"/>
            <path fill="#ff7518" d="M135.83,0h-50.83V115h27v29h-27v112h50.83c11.14,0,20.17-9.03,20.17-20.17V20.17c0-11.14-9.03-20.17-20.17-20.17Z"/>
        </g>
        <g>
            <path fill="#ff7518" opacity=".5" d="M13.05,254.68l142.95-126.35v-9.5L6.69,250.8c1.85,1.66,3.99,2.99,6.36,3.88Z"/>
            <polygon fill="#ff7518" opacity=".5" points="0 210.21 156 72.33 156 62.83 0 200.71 0 210.21"/>
            <polygon fill="#ff7518" opacity=".5" points="107.72 256 156 213.33 156 201.83 94.71 256 107.72 256"/>
            <polygon fill="#ff7518" opacity=".5" points="44.37 256 156 157.33 156 145.83 31.35 256 44.37 256"/>
            <polygon fill="#ff7518" opacity=".5" points="0 183.21 156 45.33 156 33.83 0 171.71 0 183.21"/>
            <polygon fill="#ff7518" opacity=".5" points="74.91 256 156 184.33 156 174.83 64.16 256 74.91 256"/>
            <path fill="#ff7518" opacity=".5" d="M0,235.83c0,1.07,.11,2.12,.27,3.14L156,101.33v-11.5L0,227.71v8.12Z"/>
            <path fill="#ff7518" opacity=".5" d="M0,154.21L155.67,16.62c-.59-3.34-2-6.39-4.02-8.95L0,141.71v12.5Z"/>
            <path fill="#ff7518" opacity=".5" d="M44.37,0H20.17C9.03,0,0,9.03,0,20.17v19.05L44.37,0Z"/>
            <path fill="#ff7518" opacity=".5" d="M127.52,256h8.31c11.14,0,20.17-9.03,20.17-20.17v-5.01l-28.48,25.17Z"/>
            <polygon fill="#ff7518" opacity=".5" points="0 68.21 77.18 0 64.16 0 0 56.71 0 68.21"/>
            <polygon fill="#ff7518" opacity=".5" points="0 95.21 107.72 0 96.97 0 0 85.71 0 95.21"/>
            <path fill="#ff7518" opacity=".5" d="M0,124.21L140.03,.44c-1.35-.29-2.76-.44-4.2-.44h-8.31L0,112.71v11.5Z"/>
        </g>
    </g>
</svg>