<svg version="1.1" id="Layer_1" xmlns="http://www.w3.org/2000/svg" xmlns:xlink="http://www.w3.org/1999/xlink" x="0" y="0" viewBox="-1 -1 2 2" style="enable-background:new 0 0 2 2;" xml:space="preserve"><g transform="translate(-.65-.6) scale(.0025)"><path opacity=".33" fill="#2bb575" d="M443.8 407.1H69.4c-22.2 0-40.2-18-40.2-40.2V74.5c0-21.2 17.2-38.4 38.4-38.4h378.1c21.2 0 38.4 17.2 38.4 38.4v292.4C484 389.1 466 407.1 443.8 407.1z"/><path fill="#2bb575" d="M457.9 9.1H55.2C28.9 9.1 7.6 30.5 7.6 56.8v366.7c0 26.3 21.3 47.7 47.7 47.7h402.7c26.3 0 47.7-21.3 47.7-47.7V56.8C505.6 30.5 484.2 9.1 457.9 9.1zM484 366.9c0 22.2-18 40.2-40.2 40.2H69.4c-22.2 0-40.2-18-40.2-40.2V74.5c0-21.2 17.2-38.4 38.4-38.4h378.1c21.2 0 38.4 17.2 38.4 38.4V366.9z"/><g><rect x="115.6" y="358.1" width="67" height="21"/><polygon points="120 331.1 120.2 330.9 72.8 283.5 58 298.4 90.7 331.1 58 363.9 72.8 378.7 120.2 331.4"/></g></g></svg>