<svg xmlns="http://www.w3.org/2000/svg" viewBox="-1 -1 2 2">
	<g transform="translate(0 0) rotate(45 0 0)">
		<rect x="-0.65" y="-0.65" width="1.3" height="1.3" fill="white"/>
	</g>
	<g transform="translate(-0.64 -0.53) scale(0.006 0.006)">
		<g>
			<polygon fill="#111417" points="132.79 108.39 138.59 124.11 143.88 122.44 136.06 108.39 132.79 108.39" />
			<polygon fill="#111417" points="76.77 101.79 60.14 99.78 59.22 105.25 75.28 104.69 76.77 101.79" />
			<polygon fill="#111417" points="109.7 55.31 121.09 43.01 117.19 39.06 108.22 52.4 109.7 55.31" />
			<polygon fill="#212326" points="177.42 99.3 153.72 145.57 138.59 133.73 161.32 99.3 177.42 99.3" />
			<polygon fill="#212326" points="65.36 151.84 38.73 107.19 56.8 100.66 73.91 138.2 65.36 151.84" />
			<polygon fill="#212326" points="76.74 20.62 128.71 19.18 125.59 38.14 84.47 34.74 76.74 20.62" />
			<g>
				<path fill="#111417" d="M140.53 95.28c0 19.45-15.76 26.16-35.21 26.16s-34.54-7.38-34.54-26.83 15.09-43.59 34.54-43.59 35.21 24.82 35.21 44.26Z" />
				<polygon fill="#343436" points="100.29 78.88 110.95 78.88 116.39 89.24 112.36 97.29 100.29 97.29 95.15 88.09 100.29 78.88" />
				<ellipse fill="#343436" cx="105.66" cy="59.06" rx="7.38" ry="4.69" />
				<ellipse fill="#343436" cx="82.51" cy="104.32" rx="4.69" ry="7.38" transform="translate(-43.29 61.14) rotate(-32.71 0 0)" />
				<ellipse fill="#343436" cx="129.8" cy="104.67" rx="7.38" ry="4.69" transform="translate(-31.89 145.42) rotate(-53.03 0 0)" />
			</g>
			<g>
				<path fill="#13171c" d="M55.26 111.3 99.42 34.3c2.62-4.57 4.65-12.19 2.06-16.77l-.26-.46c-2.65-4.68-7.61-7.58-12.99-7.58l-11.71 2.01c-2.31 0-4.59-.54-6.65-1.57l-11.42-7.71c-5.84-2.91-12.88-1.69-17.4 3.01l-6.66 13.06c-1.22 1.27-2.65 2.31-4.23 3.08l-15.11 6.04c-5.27 2.56-8.55 7.97-8.39 13.82l3.11 15.59c.04 1.52-.15 3.03-.57 4.49L.57 75.81c-1.73 6.08.56 12.59 5.71 16.25l14.1 6.01c1.83 1.3 3.34 2.99 4.43 4.96l3.78 10.07c2.82 5.12 7.71 8.11 13.53 7.67h.67c4.92-.38 10.01-5.18 12.47-9.46Z" />
				<polygon fill="#3f3f3f" points="7.07 87.23 14.45 90.58 31.21 80.52 25.18 62.75 21.82 62.41 4.39 77.17 7.07 87.23" />
				<polygon fill="#3f3f3f" points="28.88 106.31 32.96 83.49 36.61 81.23 52.67 84.55 53.05 90.62 49.41 109.77 38.94 115.39 29.62 111.46 28.88 106.31" />
				<polygon fill="#3f3f3f" points="96.03 29.35 78.7 44.73 74.43 44.25 63.87 31.69 67.35 26.69 82.07 13.91 93.76 15.99 98.65 24.85 96.03 29.35" />
				<polygon fill="#3f3f3f" points="27.86 55.04 25.18 55.04 12.44 45.65 9.75 38.94 14.45 30.89 23.84 29.55 38.59 38.94 27.86 55.04" />
				<polygon fill="#3f3f3f" points="43.96 32.91 41.27 31.79 41.27 9.32 47.87 4.74 56.03 6.08 60.72 11.45 60.72 32.91 43.96 32.91" />
				<path fill="#13171c" d="M51.58 88.5l25.38-44.25c1.51-2.62 2.67-7 1.18-9.64l-.15-.26c-1.52-2.69-4.37-4.35-7.46-4.35l-6.73 1.16c-1.33 0-2.64-.31-3.82-.9l-6.56-4.43c-3.35-1.67-7.4-.97-10 1.73l-3.83 7.51c-.7.73-1.52 1.33-2.43 1.77l-8.68 3.47c-3.03 1.47-4.91 4.58-4.82 7.94l1.78 8.96c.02.87-.09 1.74-.32 2.58l-4.96 8.32c-1 3.49.32 7.24 3.28 9.34l8.1 3.45c1.05.75 1.92 1.72 2.54 2.85l2.17 5.79c1.62 2.94 4.43 4.66 7.78 4.41h.39c2.83-.22 5.75-2.98 7.16-5.44Z" />
			</g>
			<g>
				<path fill="#13171c" d="M110.76 34.42l45.03 76.49c2.67 4.54 8.29 10.07 13.55 10.09h.52c5.38.02 10.35-2.86 13.01-7.53l4.05-11.17c1.14-2.01 2.74-3.72 4.65-5l12.35-6.1c5.42-3.63 7.85-10.36 6-16.61l-8.05-12.25c-.5-1.69-.69-3.45-.58-5.2l2.24-16.12c.39-5.84-2.69-11.37-7.85-14.14l-15.08-5.02c-1.34-.72-2.56-1.63-3.62-2.71l-8.31-14.67c-4.42-4.52-11.22-5.75-16.95-3.08l-12.2 9.28c-2.03.95-4.26 1.42-6.5 1.39l-10.62-1.71c-5.84-.08-10.87 2.68-13.36 7.96l-.33.58c-2.11 4.46-.46 11.26 2.05 15.52Z" />
				<polygon fill="#3f3f3f" points="155.54 4.47 148.97 9.22 149.41 28.76 167.84 32.32 169.79 29.57 165.6 7.12 155.54 4.47" />
				<polygon fill="#3f3f3f" points="128.16 13.97 145.96 28.81 146.13 33.1 135.29 45.42 129.83 42.73 114.99 30.09 115.29 18.22 123.32 12.06 128.16 13.97" />
				<polygon fill="#3f3f3f" points="161.77 110.42 156.99 87.74 159.52 84.27 175.66 81.32 178.29 86.81 182.1 105.93 174.5 115.06 164.38 114.92 161.77 110.42" />
				<polygon fill="#3f3f3f" points="173.21 38.47 174.54 36.14 189 29.72 196.16 30.71 200.83 38.77 197.34 47.59 181.88 55.76 173.21 38.47" />
				<polygon fill="#3f3f3f" points="184.47 63.41 186.77 61.63 206.29 72.76 207 80.76 201.8 87.18 194.81 88.61 176.17 77.98 184.47 63.41" />
				<path fill="#13171c" d="M132.4 42.51l25.88 43.96c1.53 2.61 4.76 5.79 7.79 5.8h.3c3.09.01 5.95-1.64 7.48-4.33l2.33-6.42c.66-1.15 1.57-2.14 2.67-2.88l7.1-3.51c3.11-2.09 4.51-5.95 3.45-9.55l-4.63-7.04c-.29-.97-.4-1.98-.33-2.99l1.29-9.26c.22-3.36-1.54-6.54-4.51-8.12l-8.67-2.89c-.77-.41-1.47-.94-2.08-1.56l-4.77-8.43c-2.54-2.6-6.45-3.31-9.74-1.77l-7.01 5.33c-1.17.54-2.45.82-3.74.8l-6.1-.98c-3.36-.05-6.24 1.54-7.68 4.58l-.19.33c-1.21 2.57-.26 6.47 1.18 8.92Z" />
			</g>
			<g>
				<path fill="#13171c" d="M150.38 120.35l-88.76.41c-5.26.02-12.88 2.09-15.54 6.63l-.26.45c-2.72 4.64-2.74 10.38-.04 15.03l7.61 9.12c1.16 2 1.84 4.24 1.98 6.54l-.94 13.74c.41 6.51 5 11.99 11.33 13.55l14.64-.79c1.71.42 3.33 1.14 4.79 2.12l12.8 10.05c4.86 3.28 11.18 3.4 16.17.33l11.93-10.5c1.29-.8 2.7-1.39 4.17-1.76l16.85.2c6.13-1.55 10.62-6.8 11.2-13.09l-1.88-15.21c.21-2.23.91-4.39 2.07-6.32l6.82-8.32c3.01-5.01 3.16-10.74-.15-15.55l-.34-.58c-2.8-4.07-9.5-6.06-14.44-6.04Z" />
				<polygon fill="#3f3f3f" points="153.72 174.11 152.92 166.05 135.81 156.59 123.46 170.72 124.85 173.79 146.36 181.48 153.72 174.11" />
				<polygon fill="#3f3f3f" points="159.29 145.67 137.5 153.59 133.71 151.57 128.53 136 133.6 132.64 151.99 126.18 162.1 132.41 163.38 142.45 159.29 145.67" />
				<polygon fill="#3f3f3f" points="59.03 126.17 81.03 133.45 82.76 137.39 77.18 152.82 71.11 152.32 52.68 145.99 48.61 134.83 53.83 126.16 59.03 126.17" />
				<polygon fill="#3f3f3f" points="115.44 172.27 116.79 174.59 115.05 190.32 110.6 196.01 101.28 195.98 95.41 188.53 96.13 171.06 115.44 172.27" />
				<polygon fill="#3f3f3f" points="88.22 169.44 88.6 172.32 69.16 183.59 61.89 180.18 58.96 172.45 61.25 165.7 79.81 154.93 88.22 169.44" />
				<path fill="#13171c" d="M132.49 134.97l-51.01.23c-3.03.01-7.4 1.2-8.93 3.81l-.15.26c-1.57 2.66-1.57 5.97-.02 8.64l4.37 5.24c.67 1.15 1.06 2.43 1.14 3.76l-.54 7.9c.24 3.74 2.87 6.89 6.51 7.79l8.41-.45c.98.24 1.91.65 2.75 1.22l7.36 5.77c2.79 1.88 6.43 1.96 9.29.19l6.86-6.04c.74-.46 1.55-.8 2.4-1.01l9.69.12c3.52-.89 6.1-3.91 6.43-7.52l-1.08-8.74c.12-1.28.52-2.53 1.19-3.63l3.92-4.78c1.73-2.88 1.81-6.17-.09-8.94l-.19-.33c-1.61-2.34-5.46-3.48-8.3-3.47Z" />
			</g>
		</g>
	</g>
</svg>