<svg xmlns="http://www.w3.org/2000/svg" viewBox="-1 -1 2 2">
	<g transform="translate(0 0) rotate(45 0 0)">
		<rect x="-0.65" y="-0.65" width="1.3" height="1.3" fill="white"/>
	</g>
	<g transform="translate(-0.53 -0.53) scale(0.006 0.006)">
		<g>
			<circle fill="#e6bd17" cx="88.5" cy="88.5" r="88.5" />
			<circle fill="#141619" cx="88.5" cy="88.5" r="61.04" />
			<circle fill="#d80e0e" cx="88.5" cy="88.5" r="28.92" />
			<polygon fill="white" points="88.21 126.85 91.35 132.28 94.48 137.72 88.21 137.72 81.93 137.72 85.07 132.28 88.21 126.85" />
			<polygon fill="white" points="88.21 49.28 85.07 43.84 81.93 38.41 88.21 38.41 94.48 38.41 91.35 43.84 88.21 49.28" />
			<polygon fill="white" points="50.59 87.88 45.16 91.02 39.72 94.16 39.72 87.88 39.72 81.61 45.16 84.75 50.59 87.88" />
			<polygon fill="white" points="126.41 87.88 131.84 84.75 137.28 81.61 137.28 87.88 137.28 94.16 131.84 91.02 126.41 87.88" />
			<path fill="#141619" d="M77.69 176.85c2.78.26 6.79.58 9.64.58 3.74 0 8.36-.13 11.98-.58l-1.17-19.28h-19.86l-.58 19.28Z" />
			<path fill="#141619" d="M10.07 47.32l16.8 8.61 11.1-16.36-14.23-11.53c-5.37 5.76-9.98 12.24-13.67 19.28Z" />
			<path fill="#141619" d="M151.54 26.24l-14.26 13.33 12.81 15.23 15.74-9.5c-3.9-6.99-8.72-13.4-14.3-19.06Z" />
			<polygon fill="#e6bd17" points="71.85 148.23 71.85 142.97 104.56 142.97 104.56 149.4 88.79 152.32 71.85 148.23" />
			<polygon fill="#e6bd17" points="104.56 28.48 104.56 33.74 71.85 33.74 71.85 27.31 87.62 24.39 104.56 28.48" />
			<polygon fill="#e6bd17" points="29.21 72.29 34.47 72.29 34.47 105 28.04 105 25.12 89.23 29.21 72.29" />
			<polygon fill="#e6bd17" points="147.79 105 142.53 105 142.53 72.29 148.96 72.29 151.88 88.06 147.79 105" />
		</g>
	</g>
</svg>